<svg xmlns="http://www.w3.org/2000/svg" viewBox="0 0 3064.48 3131.2"><defs><style>.cls-1,.cls-2,.cls-3,.cls-5{fill:none;}.cls-1,.cls-6{stroke:#40e0d0;}.cls-1,.cls-2,.cls-3,.cls-4,.cls-6{stroke-miterlimit:10;}.cls-1,.cls-3,.cls-4,.cls-6{stroke-width:70px;}.cls-2,.cls-3,.cls-4{stroke:#1f4165;}.cls-2{stroke-width:60px;}.cls-4{fill:#1f4165;}.cls-6{fill:#40e0d0;}</style></defs><title>innaux</title><g id="Layer_2" data-name="Layer 2"><g id="Layer_1-2" data-name="Layer 1"><polygon class="cls-1" points="2333.51 1053.64 2333.51 1350.42 1875.99 1350.42 1875.99 2387 1579.22 2387 1579.22 1053.64 2333.51 1053.64"/><rect class="cls-2" x="827.74" y="1732.28" width="1014.72" height="296.78" transform="translate(3215.77 545.56) rotate(90)"/><rect class="cls-2" x="1186.72" y="1055.53" width="296.78" height="230.72"/><path class="cls-3" d="M1552.56,2819.77a1275.78,1275.78,0,0,0,280.6-30.59,1250.7,1250.7,0,0,0,484.74-224.92,1256.91,1256.91,0,0,0,490.59-1146.39q-2.28-20-5.17-39.83a1257.83,1257.83,0,0,0-1250.76-1077"/><path class="cls-4" d="M1799.12,326.83c-12.94,117.32-104.94,214.47-226.75,229.54V39.58c116.7,14.37,212.73,107,226.64,229A260.05,260.05,0,0,1,1799.12,326.83Z"/><circle class="cls-4" cx="2545.76" cy="724.2" r="260.35"/><circle class="cls-4" cx="2843.89" cy="1550.6" r="185.57"/><path class="cls-4" d="M1592.55,3088.84q-10.74,1.23-21.38,1.57V2569.92c122.59,3.65,227.73,93.57,248.56,216.54.82,4.69,1.49,9.46,2,14.25C1838,2943.56,1735.43,3072.55,1592.55,3088.84Z"/><circle class="cls-4" cx="2524.33" cy="2405.56" r="260.35"/><line class="cls-5" x1="2425.52" y1="2234.77" x2="2425.52" y2="2093.34"/><path class="cls-1" d="M1274.22,335.35A1247.94,1247.94,0,0,0,728.79,577.62,1252.87,1252.87,0,0,0,252.7,1736.16c.4,3,.82,6,1.24,9.07,29.25,208.09,107.94,397,222.59,556.65a1258.89,1258.89,0,0,0,797.69,504.2"/><circle class="cls-6" cx="208.33" cy="1568.62" r="173.3"/><circle class="cls-6" cx="548.22" cy="712.61" r="225.4"/><circle class="cls-6" cx="619.9" cy="2473.83" r="223.86"/><path class="cls-6" d="M1228.59,331.19c13,117.31,104.94,214.47,226.75,229.54V43.94c-116.7,14.37-212.72,107-226.64,229A260.05,260.05,0,0,0,1228.59,331.19Z"/><path class="cls-6" d="M1434.05,3093.46q10.74,1.22,21.38,1.57V2574.54c-122.59,3.64-227.72,93.57-248.56,216.54-.81,4.68-1.48,9.45-2,14.24C1188.57,2948.18,1291.17,3077.17,1434.05,3093.46Z"/></g></g></svg>